<mxfile host="app.diagrams.net" modified="2024-07-19T18:56:00.716Z" agent="Mozilla/5.0 (Windows NT 10.0; Win64; x64) AppleWebKit/537.36 (KHTML, like Gecko) Chrome/126.0.0.0 Safari/537.36" etag="T3QrmPLRFPd79T0taZZ2" version="24.7.1" type="github">
  <diagram id="prtHgNgQTEPvFCAcTncT" name="Page-1">
    <mxGraphModel dx="794" dy="459" grid="1" gridSize="10" guides="1" tooltips="1" connect="1" arrows="1" fold="1" page="1" pageScale="1" pageWidth="827" pageHeight="1169" math="0" shadow="0">
      <root>
        <mxCell id="0" />
        <mxCell id="1" parent="0" />
        <mxCell id="dNxyNK7c78bLwvsdeMH5-11" value="DEPLOY MIT EC2" style="swimlane;html=1;startSize=20;horizontal=1;containerType=tree;glass=0;" parent="1" vertex="1">
          <mxGeometry x="827" y="100" width="550" height="290" as="geometry" />
        </mxCell>
        <mxCell id="9S2_7b4mvDIKhxkQ7Gb--81" value="default values (no image)" style="rounded=0;whiteSpace=wrap;html=1;verticalAlign=top;" parent="dNxyNK7c78bLwvsdeMH5-11" vertex="1">
          <mxGeometry x="320" y="50" width="166" height="30" as="geometry" />
        </mxCell>
        <mxCell id="9S2_7b4mvDIKhxkQ7Gb--82" value="NEW USER" style="rounded=0;whiteSpace=wrap;html=1;verticalAlign=top;" parent="dNxyNK7c78bLwvsdeMH5-11" vertex="1">
          <mxGeometry x="40" y="90" width="80" height="30" as="geometry" />
        </mxCell>
        <mxCell id="TbEDR5lOKSL9BZgDEyWb-1" value="FORM" style="whiteSpace=wrap;html=1;aspect=fixed;" vertex="1" parent="dNxyNK7c78bLwvsdeMH5-11">
          <mxGeometry x="150" y="75" width="60" height="60" as="geometry" />
        </mxCell>
        <mxCell id="TbEDR5lOKSL9BZgDEyWb-40" style="edgeStyle=orthogonalEdgeStyle;rounded=0;orthogonalLoop=1;jettySize=auto;html=1;entryX=0;entryY=0.25;entryDx=0;entryDy=0;" edge="1" parent="dNxyNK7c78bLwvsdeMH5-11" source="TbEDR5lOKSL9BZgDEyWb-2" target="9S2_7b4mvDIKhxkQ7Gb--81">
          <mxGeometry relative="1" as="geometry">
            <Array as="points">
              <mxPoint x="280" y="55" />
              <mxPoint x="303" y="55" />
              <mxPoint x="303" y="58" />
            </Array>
          </mxGeometry>
        </mxCell>
        <mxCell id="TbEDR5lOKSL9BZgDEyWb-2" value="CREATE USER" style="shape=hexagon;perimeter=hexagonPerimeter2;whiteSpace=wrap;html=1;fixedSize=1;" vertex="1" parent="dNxyNK7c78bLwvsdeMH5-11">
          <mxGeometry x="240" y="75" width="80" height="60" as="geometry" />
        </mxCell>
        <mxCell id="TbEDR5lOKSL9BZgDEyWb-8" value="EDIT PROFILE" style="rounded=0;whiteSpace=wrap;html=1;" vertex="1" parent="dNxyNK7c78bLwvsdeMH5-11">
          <mxGeometry x="40" y="170" width="80" height="40" as="geometry" />
        </mxCell>
        <mxCell id="TbEDR5lOKSL9BZgDEyWb-9" value="FORM" style="whiteSpace=wrap;html=1;aspect=fixed;" vertex="1" parent="dNxyNK7c78bLwvsdeMH5-11">
          <mxGeometry x="150" y="160" width="60" height="60" as="geometry" />
        </mxCell>
        <mxCell id="TbEDR5lOKSL9BZgDEyWb-12" style="edgeStyle=orthogonalEdgeStyle;rounded=0;orthogonalLoop=1;jettySize=auto;html=1;entryX=0;entryY=0.5;entryDx=0;entryDy=0;" edge="1" parent="dNxyNK7c78bLwvsdeMH5-11">
          <mxGeometry relative="1" as="geometry">
            <mxPoint x="320" y="190" as="sourcePoint" />
            <mxPoint x="430" y="235" as="targetPoint" />
            <Array as="points">
              <mxPoint x="330" y="190" />
              <mxPoint x="330" y="235" />
            </Array>
          </mxGeometry>
        </mxCell>
        <mxCell id="TbEDR5lOKSL9BZgDEyWb-13" value="iF IMAGE" style="edgeLabel;html=1;align=center;verticalAlign=middle;resizable=0;points=[];" vertex="1" connectable="0" parent="TbEDR5lOKSL9BZgDEyWb-12">
          <mxGeometry x="-0.2754" y="-4" relative="1" as="geometry">
            <mxPoint x="39" y="-4" as="offset" />
          </mxGeometry>
        </mxCell>
        <mxCell id="TbEDR5lOKSL9BZgDEyWb-14" style="edgeStyle=orthogonalEdgeStyle;rounded=0;orthogonalLoop=1;jettySize=auto;html=1;exitX=1;exitY=0.5;exitDx=0;exitDy=0;entryX=0;entryY=0.5;entryDx=0;entryDy=0;" edge="1" parent="dNxyNK7c78bLwvsdeMH5-11" source="TbEDR5lOKSL9BZgDEyWb-10" target="TbEDR5lOKSL9BZgDEyWb-17">
          <mxGeometry relative="1" as="geometry">
            <mxPoint x="350" y="190" as="targetPoint" />
            <Array as="points">
              <mxPoint x="330" y="190" />
              <mxPoint x="330" y="165" />
            </Array>
          </mxGeometry>
        </mxCell>
        <mxCell id="TbEDR5lOKSL9BZgDEyWb-18" value="IF IMAGE&lt;div&gt;BEFORE&lt;/div&gt;" style="edgeLabel;html=1;align=center;verticalAlign=middle;resizable=0;points=[];" vertex="1" connectable="0" parent="TbEDR5lOKSL9BZgDEyWb-14">
          <mxGeometry x="0.0578" y="-4" relative="1" as="geometry">
            <mxPoint as="offset" />
          </mxGeometry>
        </mxCell>
        <mxCell id="TbEDR5lOKSL9BZgDEyWb-10" value="EDIT&amp;nbsp;&lt;div&gt;USER&lt;/div&gt;" style="shape=hexagon;perimeter=hexagonPerimeter2;whiteSpace=wrap;html=1;fixedSize=1;" vertex="1" parent="dNxyNK7c78bLwvsdeMH5-11">
          <mxGeometry x="240" y="160" width="80" height="60" as="geometry" />
        </mxCell>
        <mxCell id="TbEDR5lOKSL9BZgDEyWb-11" value="S3 BUCKET" style="rounded=0;whiteSpace=wrap;html=1;" vertex="1" parent="dNxyNK7c78bLwvsdeMH5-11">
          <mxGeometry x="430" y="220" width="80" height="30" as="geometry" />
        </mxCell>
        <mxCell id="TbEDR5lOKSL9BZgDEyWb-17" value="S3 BUCKET DELETE" style="rounded=0;whiteSpace=wrap;html=1;" vertex="1" parent="dNxyNK7c78bLwvsdeMH5-11">
          <mxGeometry x="430" y="150" width="70" height="30" as="geometry" />
        </mxCell>
        <mxCell id="9S2_7b4mvDIKhxkQ7Gb--50" value="" style="edgeStyle=orthogonalEdgeStyle;rounded=0;orthogonalLoop=1;jettySize=auto;html=1;" parent="1" source="9S2_7b4mvDIKhxkQ7Gb--7" target="9S2_7b4mvDIKhxkQ7Gb--34" edge="1">
          <mxGeometry relative="1" as="geometry" />
        </mxCell>
        <mxCell id="9S2_7b4mvDIKhxkQ7Gb--7" value="User" style="swimlane;fontStyle=0;childLayout=stackLayout;horizontal=1;startSize=20;fillColor=none;horizontalStack=0;resizeParent=1;resizeParentMax=0;resizeLast=0;collapsible=1;marginBottom=0;whiteSpace=wrap;html=1;" parent="1" vertex="1">
          <mxGeometry x="90" y="473" width="140" height="380" as="geometry">
            <mxRectangle x="340" y="390" width="70" height="30" as="alternateBounds" />
          </mxGeometry>
        </mxCell>
        <mxCell id="9S2_7b4mvDIKhxkQ7Gb--8" value="+ id&lt;span style=&quot;color: rgba(0, 0, 0, 0); font-family: monospace; font-size: 0px; text-wrap: nowrap;&quot;&gt;%3CmxGraphModel%3E%3Croot%3E%3CmxCell%20id%3D%220%22%2F%3E%3CmxCell%20id%3D%221%22%20parent%3D%220%22%2F%3E%3CmxCell%20id%3D%222%22%20value%3D%22%2B%20Password%22%20style%3D%22text%3BstrokeColor%3Dnone%3BfillColor%3Dnone%3Balign%3Dleft%3BverticalAlign%3Dtop%3BspacingLeft%3D4%3BspacingRight%3D4%3Boverflow%3Dhidden%3Brotatable%3D0%3Bpoints%3D%5B%5B0%2C0.5%5D%2C%5B1%2C0.5%5D%5D%3BportConstraint%3Deastwest%3BwhiteSpace%3Dwrap%3Bhtml%3D1%3B%22%20vertex%3D%221%22%20parent%3D%221%22%3E%3CmxGeometry%20x%3D%22340%22%20y%3D%22458%22%20width%3D%22140%22%20height%3D%2226%22%20as%3D%22geometry%22%2F%3E%3C%2FmxCell%3E%3C%2Froot%3E%3C%2FmxGraphModel%3E&lt;/span&gt;" style="text;strokeColor=none;fillColor=none;align=left;verticalAlign=top;spacingLeft=4;spacingRight=4;overflow=hidden;rotatable=0;points=[[0,0.5],[1,0.5]];portConstraint=eastwest;whiteSpace=wrap;html=1;" parent="9S2_7b4mvDIKhxkQ7Gb--7" vertex="1">
          <mxGeometry y="20" width="140" height="22" as="geometry" />
        </mxCell>
        <mxCell id="9S2_7b4mvDIKhxkQ7Gb--9" value="+ username" style="text;strokeColor=none;fillColor=none;align=left;verticalAlign=top;spacingLeft=4;spacingRight=4;overflow=hidden;rotatable=0;points=[[0,0.5],[1,0.5]];portConstraint=eastwest;whiteSpace=wrap;html=1;" parent="9S2_7b4mvDIKhxkQ7Gb--7" vertex="1">
          <mxGeometry y="42" width="140" height="26" as="geometry" />
        </mxCell>
        <mxCell id="9S2_7b4mvDIKhxkQ7Gb--10" value="+ email" style="text;strokeColor=none;fillColor=none;align=left;verticalAlign=top;spacingLeft=4;spacingRight=4;overflow=hidden;rotatable=0;points=[[0,0.5],[1,0.5]];portConstraint=eastwest;whiteSpace=wrap;html=1;" parent="9S2_7b4mvDIKhxkQ7Gb--7" vertex="1">
          <mxGeometry y="68" width="140" height="26" as="geometry" />
        </mxCell>
        <mxCell id="9S2_7b4mvDIKhxkQ7Gb--21" value="+ password" style="text;strokeColor=none;fillColor=none;align=left;verticalAlign=top;spacingLeft=4;spacingRight=4;overflow=hidden;rotatable=0;points=[[0,0.5],[1,0.5]];portConstraint=eastwest;whiteSpace=wrap;html=1;" parent="9S2_7b4mvDIKhxkQ7Gb--7" vertex="1">
          <mxGeometry y="94" width="140" height="26" as="geometry" />
        </mxCell>
        <mxCell id="9S2_7b4mvDIKhxkQ7Gb--25" value="+ backgroundImage" style="text;strokeColor=none;fillColor=none;align=left;verticalAlign=top;spacingLeft=4;spacingRight=4;overflow=hidden;rotatable=0;points=[[0,0.5],[1,0.5]];portConstraint=eastwest;whiteSpace=wrap;html=1;" parent="9S2_7b4mvDIKhxkQ7Gb--7" vertex="1">
          <mxGeometry y="120" width="140" height="26" as="geometry" />
        </mxCell>
        <mxCell id="9S2_7b4mvDIKhxkQ7Gb--30" style="edgeStyle=orthogonalEdgeStyle;rounded=0;orthogonalLoop=1;jettySize=auto;html=1;" parent="9S2_7b4mvDIKhxkQ7Gb--7" source="9S2_7b4mvDIKhxkQ7Gb--26" target="9S2_7b4mvDIKhxkQ7Gb--7" edge="1">
          <mxGeometry relative="1" as="geometry">
            <Array as="points">
              <mxPoint x="-20" y="159" />
              <mxPoint x="-20" y="-33" />
              <mxPoint x="70" y="-33" />
            </Array>
          </mxGeometry>
        </mxCell>
        <mxCell id="9S2_7b4mvDIKhxkQ7Gb--26" value="+ backgroundColor" style="text;strokeColor=none;fillColor=none;align=left;verticalAlign=top;spacingLeft=4;spacingRight=4;overflow=hidden;rotatable=0;points=[[0,0.5],[1,0.5]];portConstraint=eastwest;whiteSpace=wrap;html=1;" parent="9S2_7b4mvDIKhxkQ7Gb--7" vertex="1">
          <mxGeometry y="146" width="140" height="26" as="geometry" />
        </mxCell>
        <mxCell id="9S2_7b4mvDIKhxkQ7Gb--24" value="+ icon" style="text;strokeColor=none;fillColor=none;align=left;verticalAlign=top;spacingLeft=4;spacingRight=4;overflow=hidden;rotatable=0;points=[[0,0.5],[1,0.5]];portConstraint=eastwest;whiteSpace=wrap;html=1;" parent="9S2_7b4mvDIKhxkQ7Gb--7" vertex="1">
          <mxGeometry y="172" width="140" height="26" as="geometry" />
        </mxCell>
        <mxCell id="9S2_7b4mvDIKhxkQ7Gb--23" value="+ bio" style="text;strokeColor=none;fillColor=none;align=left;verticalAlign=top;spacingLeft=4;spacingRight=4;overflow=hidden;rotatable=0;points=[[0,0.5],[1,0.5]];portConstraint=eastwest;whiteSpace=wrap;html=1;" parent="9S2_7b4mvDIKhxkQ7Gb--7" vertex="1">
          <mxGeometry y="198" width="140" height="26" as="geometry" />
        </mxCell>
        <mxCell id="9S2_7b4mvDIKhxkQ7Gb--22" value="+ status" style="text;strokeColor=none;fillColor=none;align=left;verticalAlign=top;spacingLeft=4;spacingRight=4;overflow=hidden;rotatable=0;points=[[0,0.5],[1,0.5]];portConstraint=eastwest;whiteSpace=wrap;html=1;" parent="9S2_7b4mvDIKhxkQ7Gb--7" vertex="1">
          <mxGeometry y="224" width="140" height="26" as="geometry" />
        </mxCell>
        <mxCell id="9S2_7b4mvDIKhxkQ7Gb--27" value="+ status" style="text;strokeColor=none;fillColor=none;align=left;verticalAlign=top;spacingLeft=4;spacingRight=4;overflow=hidden;rotatable=0;points=[[0,0.5],[1,0.5]];portConstraint=eastwest;whiteSpace=wrap;html=1;" parent="9S2_7b4mvDIKhxkQ7Gb--7" vertex="1">
          <mxGeometry y="250" width="140" height="26" as="geometry" />
        </mxCell>
        <mxCell id="9S2_7b4mvDIKhxkQ7Gb--29" value="+ createdAt" style="text;strokeColor=none;fillColor=none;align=left;verticalAlign=top;spacingLeft=4;spacingRight=4;overflow=hidden;rotatable=0;points=[[0,0.5],[1,0.5]];portConstraint=eastwest;whiteSpace=wrap;html=1;" parent="9S2_7b4mvDIKhxkQ7Gb--7" vertex="1">
          <mxGeometry y="276" width="140" height="26" as="geometry" />
        </mxCell>
        <mxCell id="9S2_7b4mvDIKhxkQ7Gb--28" value="+ updatedAt" style="text;strokeColor=none;fillColor=none;align=left;verticalAlign=top;spacingLeft=4;spacingRight=4;overflow=hidden;rotatable=0;points=[[0,0.5],[1,0.5]];portConstraint=eastwest;whiteSpace=wrap;html=1;" parent="9S2_7b4mvDIKhxkQ7Gb--7" vertex="1">
          <mxGeometry y="302" width="140" height="26" as="geometry" />
        </mxCell>
        <mxCell id="9S2_7b4mvDIKhxkQ7Gb--31" value="+ followers Set&amp;lt;User&amp;gt;" style="text;strokeColor=none;fillColor=none;align=left;verticalAlign=top;spacingLeft=4;spacingRight=4;overflow=hidden;rotatable=0;points=[[0,0.5],[1,0.5]];portConstraint=eastwest;whiteSpace=wrap;html=1;" parent="9S2_7b4mvDIKhxkQ7Gb--7" vertex="1">
          <mxGeometry y="328" width="140" height="26" as="geometry" />
        </mxCell>
        <mxCell id="9S2_7b4mvDIKhxkQ7Gb--32" value="+ following Set&amp;lt;User&amp;gt;" style="text;strokeColor=none;fillColor=none;align=left;verticalAlign=top;spacingLeft=4;spacingRight=4;overflow=hidden;rotatable=0;points=[[0,0.5],[1,0.5]];portConstraint=eastwest;whiteSpace=wrap;html=1;" parent="9S2_7b4mvDIKhxkQ7Gb--7" vertex="1">
          <mxGeometry y="354" width="140" height="26" as="geometry" />
        </mxCell>
        <mxCell id="9S2_7b4mvDIKhxkQ7Gb--51" style="edgeStyle=orthogonalEdgeStyle;rounded=0;orthogonalLoop=1;jettySize=auto;html=1;entryX=0.75;entryY=0;entryDx=0;entryDy=0;" parent="1" source="9S2_7b4mvDIKhxkQ7Gb--34" target="9S2_7b4mvDIKhxkQ7Gb--7" edge="1">
          <mxGeometry relative="1" as="geometry">
            <mxPoint x="430" y="450" as="targetPoint" />
            <Array as="points">
              <mxPoint x="615" y="440" />
              <mxPoint x="195" y="440" />
            </Array>
          </mxGeometry>
        </mxCell>
        <mxCell id="9S2_7b4mvDIKhxkQ7Gb--72" value="" style="edgeStyle=orthogonalEdgeStyle;rounded=0;orthogonalLoop=1;jettySize=auto;html=1;" parent="1" source="9S2_7b4mvDIKhxkQ7Gb--34" target="9S2_7b4mvDIKhxkQ7Gb--56" edge="1">
          <mxGeometry relative="1" as="geometry" />
        </mxCell>
        <mxCell id="9S2_7b4mvDIKhxkQ7Gb--34" value="Article" style="swimlane;fontStyle=0;childLayout=stackLayout;horizontal=1;startSize=20;fillColor=none;horizontalStack=0;resizeParent=1;resizeParentMax=0;resizeLast=0;collapsible=1;marginBottom=0;whiteSpace=wrap;html=1;" parent="1" vertex="1">
          <mxGeometry x="545" y="460" width="140" height="406" as="geometry">
            <mxRectangle x="340" y="390" width="70" height="30" as="alternateBounds" />
          </mxGeometry>
        </mxCell>
        <mxCell id="9S2_7b4mvDIKhxkQ7Gb--35" value="+ id&lt;span style=&quot;color: rgba(0, 0, 0, 0); font-family: monospace; font-size: 0px; text-wrap: nowrap;&quot;&gt;%3CmxGraphModel%3E%3Croot%3E%3CmxCell%20id%3D%220%22%2F%3E%3CmxCell%20id%3D%221%22%20parent%3D%220%22%2F%3E%3CmxCell%20id%3D%222%22%20value%3D%22%2B%20Password%22%20style%3D%22text%3BstrokeColor%3Dnone%3BfillColor%3Dnone%3Balign%3Dleft%3BverticalAlign%3Dtop%3BspacingLeft%3D4%3BspacingRight%3D4%3Boverflow%3Dhidden%3Brotatable%3D0%3Bpoints%3D%5B%5B0%2C0.5%5D%2C%5B1%2C0.5%5D%5D%3BportConstraint%3Deastwest%3BwhiteSpace%3Dwrap%3Bhtml%3D1%3B%22%20vertex%3D%221%22%20parent%3D%221%22%3E%3CmxGeometry%20x%3D%22340%22%20y%3D%22458%22%20width%3D%22140%22%20height%3D%2226%22%20as%3D%22geometry%22%2F%3E%3C%2FmxCell%3E%3C%2Froot%3E%3C%2FmxGraphModel%3E&lt;/span&gt;" style="text;strokeColor=none;fillColor=none;align=left;verticalAlign=top;spacingLeft=4;spacingRight=4;overflow=hidden;rotatable=0;points=[[0,0.5],[1,0.5]];portConstraint=eastwest;whiteSpace=wrap;html=1;" parent="9S2_7b4mvDIKhxkQ7Gb--34" vertex="1">
          <mxGeometry y="20" width="140" height="22" as="geometry" />
        </mxCell>
        <mxCell id="9S2_7b4mvDIKhxkQ7Gb--36" value="+ author &amp;lt;User&amp;gt;" style="text;strokeColor=none;fillColor=none;align=left;verticalAlign=top;spacingLeft=4;spacingRight=4;overflow=hidden;rotatable=0;points=[[0,0.5],[1,0.5]];portConstraint=eastwest;whiteSpace=wrap;html=1;" parent="9S2_7b4mvDIKhxkQ7Gb--34" vertex="1">
          <mxGeometry y="42" width="140" height="26" as="geometry" />
        </mxCell>
        <mxCell id="9S2_7b4mvDIKhxkQ7Gb--37" value="+ title" style="text;strokeColor=none;fillColor=none;align=left;verticalAlign=top;spacingLeft=4;spacingRight=4;overflow=hidden;rotatable=0;points=[[0,0.5],[1,0.5]];portConstraint=eastwest;whiteSpace=wrap;html=1;" parent="9S2_7b4mvDIKhxkQ7Gb--34" vertex="1">
          <mxGeometry y="68" width="140" height="26" as="geometry" />
        </mxCell>
        <mxCell id="9S2_7b4mvDIKhxkQ7Gb--38" value="+ description" style="text;strokeColor=none;fillColor=none;align=left;verticalAlign=top;spacingLeft=4;spacingRight=4;overflow=hidden;rotatable=0;points=[[0,0.5],[1,0.5]];portConstraint=eastwest;whiteSpace=wrap;html=1;" parent="9S2_7b4mvDIKhxkQ7Gb--34" vertex="1">
          <mxGeometry y="94" width="140" height="26" as="geometry" />
        </mxCell>
        <mxCell id="9S2_7b4mvDIKhxkQ7Gb--39" value="+ slug" style="text;strokeColor=none;fillColor=none;align=left;verticalAlign=top;spacingLeft=4;spacingRight=4;overflow=hidden;rotatable=0;points=[[0,0.5],[1,0.5]];portConstraint=eastwest;whiteSpace=wrap;html=1;" parent="9S2_7b4mvDIKhxkQ7Gb--34" vertex="1">
          <mxGeometry y="120" width="140" height="26" as="geometry" />
        </mxCell>
        <mxCell id="9S2_7b4mvDIKhxkQ7Gb--41" value="+ body" style="text;strokeColor=none;fillColor=none;align=left;verticalAlign=top;spacingLeft=4;spacingRight=4;overflow=hidden;rotatable=0;points=[[0,0.5],[1,0.5]];portConstraint=eastwest;whiteSpace=wrap;html=1;" parent="9S2_7b4mvDIKhxkQ7Gb--34" vertex="1">
          <mxGeometry y="146" width="140" height="26" as="geometry" />
        </mxCell>
        <mxCell id="9S2_7b4mvDIKhxkQ7Gb--42" value="+ backgroundImage" style="text;strokeColor=none;fillColor=none;align=left;verticalAlign=top;spacingLeft=4;spacingRight=4;overflow=hidden;rotatable=0;points=[[0,0.5],[1,0.5]];portConstraint=eastwest;whiteSpace=wrap;html=1;" parent="9S2_7b4mvDIKhxkQ7Gb--34" vertex="1">
          <mxGeometry y="172" width="140" height="26" as="geometry" />
        </mxCell>
        <mxCell id="9S2_7b4mvDIKhxkQ7Gb--43" value="+ backgroundColor" style="text;strokeColor=none;fillColor=none;align=left;verticalAlign=top;spacingLeft=4;spacingRight=4;overflow=hidden;rotatable=0;points=[[0,0.5],[1,0.5]];portConstraint=eastwest;whiteSpace=wrap;html=1;" parent="9S2_7b4mvDIKhxkQ7Gb--34" vertex="1">
          <mxGeometry y="198" width="140" height="26" as="geometry" />
        </mxCell>
        <mxCell id="9S2_7b4mvDIKhxkQ7Gb--44" value="+ icon" style="text;strokeColor=none;fillColor=none;align=left;verticalAlign=top;spacingLeft=4;spacingRight=4;overflow=hidden;rotatable=0;points=[[0,0.5],[1,0.5]];portConstraint=eastwest;whiteSpace=wrap;html=1;" parent="9S2_7b4mvDIKhxkQ7Gb--34" vertex="1">
          <mxGeometry y="224" width="140" height="26" as="geometry" />
        </mxCell>
        <mxCell id="9S2_7b4mvDIKhxkQ7Gb--46" value="+ createdAt" style="text;strokeColor=none;fillColor=none;align=left;verticalAlign=top;spacingLeft=4;spacingRight=4;overflow=hidden;rotatable=0;points=[[0,0.5],[1,0.5]];portConstraint=eastwest;whiteSpace=wrap;html=1;" parent="9S2_7b4mvDIKhxkQ7Gb--34" vertex="1">
          <mxGeometry y="250" width="140" height="26" as="geometry" />
        </mxCell>
        <mxCell id="9S2_7b4mvDIKhxkQ7Gb--47" value="+ updatedAt" style="text;strokeColor=none;fillColor=none;align=left;verticalAlign=top;spacingLeft=4;spacingRight=4;overflow=hidden;rotatable=0;points=[[0,0.5],[1,0.5]];portConstraint=eastwest;whiteSpace=wrap;html=1;" parent="9S2_7b4mvDIKhxkQ7Gb--34" vertex="1">
          <mxGeometry y="276" width="140" height="26" as="geometry" />
        </mxCell>
        <mxCell id="9S2_7b4mvDIKhxkQ7Gb--48" value="+ fontColor" style="text;strokeColor=none;fillColor=none;align=left;verticalAlign=top;spacingLeft=4;spacingRight=4;overflow=hidden;rotatable=0;points=[[0,0.5],[1,0.5]];portConstraint=eastwest;whiteSpace=wrap;html=1;" parent="9S2_7b4mvDIKhxkQ7Gb--34" vertex="1">
          <mxGeometry y="302" width="140" height="26" as="geometry" />
        </mxCell>
        <mxCell id="9S2_7b4mvDIKhxkQ7Gb--55" value="+ favorited Set&amp;lt;User&amp;gt;" style="text;strokeColor=none;fillColor=none;align=left;verticalAlign=top;spacingLeft=4;spacingRight=4;overflow=hidden;rotatable=0;points=[[0,0.5],[1,0.5]];portConstraint=eastwest;whiteSpace=wrap;html=1;" parent="9S2_7b4mvDIKhxkQ7Gb--34" vertex="1">
          <mxGeometry y="328" width="140" height="26" as="geometry" />
        </mxCell>
        <mxCell id="9S2_7b4mvDIKhxkQ7Gb--53" value="+ tags Set&amp;lt;User&amp;gt;" style="text;strokeColor=none;fillColor=none;align=left;verticalAlign=top;spacingLeft=4;spacingRight=4;overflow=hidden;rotatable=0;points=[[0,0.5],[1,0.5]];portConstraint=eastwest;whiteSpace=wrap;html=1;" parent="9S2_7b4mvDIKhxkQ7Gb--34" vertex="1">
          <mxGeometry y="354" width="140" height="26" as="geometry" />
        </mxCell>
        <mxCell id="9S2_7b4mvDIKhxkQ7Gb--54" value="+ comments Set&amp;lt;User&amp;gt;" style="text;strokeColor=none;fillColor=none;align=left;verticalAlign=top;spacingLeft=4;spacingRight=4;overflow=hidden;rotatable=0;points=[[0,0.5],[1,0.5]];portConstraint=eastwest;whiteSpace=wrap;html=1;" parent="9S2_7b4mvDIKhxkQ7Gb--34" vertex="1">
          <mxGeometry y="380" width="140" height="26" as="geometry" />
        </mxCell>
        <mxCell id="9S2_7b4mvDIKhxkQ7Gb--76" value="" style="edgeStyle=orthogonalEdgeStyle;rounded=0;orthogonalLoop=1;jettySize=auto;html=1;" parent="1" source="9S2_7b4mvDIKhxkQ7Gb--56" target="9S2_7b4mvDIKhxkQ7Gb--73" edge="1">
          <mxGeometry relative="1" as="geometry" />
        </mxCell>
        <mxCell id="9S2_7b4mvDIKhxkQ7Gb--56" value="Tags" style="swimlane;fontStyle=0;childLayout=stackLayout;horizontal=1;startSize=20;fillColor=none;horizontalStack=0;resizeParent=1;resizeParentMax=0;resizeLast=0;collapsible=1;marginBottom=0;whiteSpace=wrap;html=1;" parent="1" vertex="1">
          <mxGeometry x="545" y="946" width="140" height="68" as="geometry">
            <mxRectangle x="340" y="390" width="70" height="30" as="alternateBounds" />
          </mxGeometry>
        </mxCell>
        <mxCell id="9S2_7b4mvDIKhxkQ7Gb--57" value="+ id&lt;span style=&quot;color: rgba(0, 0, 0, 0); font-family: monospace; font-size: 0px; text-wrap: nowrap;&quot;&gt;%3CmxGraphModel%3E%3Croot%3E%3CmxCell%20id%3D%220%22%2F%3E%3CmxCell%20id%3D%221%22%20parent%3D%220%22%2F%3E%3CmxCell%20id%3D%222%22%20value%3D%22%2B%20Password%22%20style%3D%22text%3BstrokeColor%3Dnone%3BfillColor%3Dnone%3Balign%3Dleft%3BverticalAlign%3Dtop%3BspacingLeft%3D4%3BspacingRight%3D4%3Boverflow%3Dhidden%3Brotatable%3D0%3Bpoints%3D%5B%5B0%2C0.5%5D%2C%5B1%2C0.5%5D%5D%3BportConstraint%3Deastwest%3BwhiteSpace%3Dwrap%3Bhtml%3D1%3B%22%20vertex%3D%221%22%20parent%3D%221%22%3E%3CmxGeometry%20x%3D%22340%22%20y%3D%22458%22%20width%3D%22140%22%20height%3D%2226%22%20as%3D%22geometry%22%2F%3E%3C%2FmxCell%3E%3C%2Froot%3E%3C%2FmxGraphModel%3E&lt;/span&gt;" style="text;strokeColor=none;fillColor=none;align=left;verticalAlign=top;spacingLeft=4;spacingRight=4;overflow=hidden;rotatable=0;points=[[0,0.5],[1,0.5]];portConstraint=eastwest;whiteSpace=wrap;html=1;" parent="9S2_7b4mvDIKhxkQ7Gb--56" vertex="1">
          <mxGeometry y="20" width="140" height="22" as="geometry" />
        </mxCell>
        <mxCell id="9S2_7b4mvDIKhxkQ7Gb--58" value="+ name" style="text;strokeColor=none;fillColor=none;align=left;verticalAlign=top;spacingLeft=4;spacingRight=4;overflow=hidden;rotatable=0;points=[[0,0.5],[1,0.5]];portConstraint=eastwest;whiteSpace=wrap;html=1;" parent="9S2_7b4mvDIKhxkQ7Gb--56" vertex="1">
          <mxGeometry y="42" width="140" height="26" as="geometry" />
        </mxCell>
        <mxCell id="9S2_7b4mvDIKhxkQ7Gb--73" value="comments" style="swimlane;fontStyle=0;childLayout=stackLayout;horizontal=1;startSize=20;fillColor=none;horizontalStack=0;resizeParent=1;resizeParentMax=0;resizeLast=0;collapsible=1;marginBottom=0;whiteSpace=wrap;html=1;" parent="1" vertex="1">
          <mxGeometry x="325" y="946" width="140" height="68" as="geometry">
            <mxRectangle x="340" y="390" width="70" height="30" as="alternateBounds" />
          </mxGeometry>
        </mxCell>
        <mxCell id="9S2_7b4mvDIKhxkQ7Gb--74" value="+ id&lt;span style=&quot;color: rgba(0, 0, 0, 0); font-family: monospace; font-size: 0px; text-wrap: nowrap;&quot;&gt;%3CmxGraphModel%3E%3Croot%3E%3CmxCell%20id%3D%220%22%2F%3E%3CmxCell%20id%3D%221%22%20parent%3D%220%22%2F%3E%3CmxCell%20id%3D%222%22%20value%3D%22%2B%20Password%22%20style%3D%22text%3BstrokeColor%3Dnone%3BfillColor%3Dnone%3Balign%3Dleft%3BverticalAlign%3Dtop%3BspacingLeft%3D4%3BspacingRight%3D4%3Boverflow%3Dhidden%3Brotatable%3D0%3Bpoints%3D%5B%5B0%2C0.5%5D%2C%5B1%2C0.5%5D%5D%3BportConstraint%3Deastwest%3BwhiteSpace%3Dwrap%3Bhtml%3D1%3B%22%20vertex%3D%221%22%20parent%3D%221%22%3E%3CmxGeometry%20x%3D%22340%22%20y%3D%22458%22%20width%3D%22140%22%20height%3D%2226%22%20as%3D%22geometry%22%2F%3E%3C%2FmxCell%3E%3C%2Froot%3E%3C%2FmxGraphModel%3E&lt;/span&gt;" style="text;strokeColor=none;fillColor=none;align=left;verticalAlign=top;spacingLeft=4;spacingRight=4;overflow=hidden;rotatable=0;points=[[0,0.5],[1,0.5]];portConstraint=eastwest;whiteSpace=wrap;html=1;" parent="9S2_7b4mvDIKhxkQ7Gb--73" vertex="1">
          <mxGeometry y="20" width="140" height="22" as="geometry" />
        </mxCell>
        <mxCell id="9S2_7b4mvDIKhxkQ7Gb--78" style="edgeStyle=orthogonalEdgeStyle;rounded=0;orthogonalLoop=1;jettySize=auto;html=1;" parent="9S2_7b4mvDIKhxkQ7Gb--73" source="9S2_7b4mvDIKhxkQ7Gb--75" edge="1">
          <mxGeometry relative="1" as="geometry">
            <mxPoint x="-165" y="-86" as="targetPoint" />
          </mxGeometry>
        </mxCell>
        <mxCell id="9S2_7b4mvDIKhxkQ7Gb--75" value="+ author" style="text;strokeColor=none;fillColor=none;align=left;verticalAlign=top;spacingLeft=4;spacingRight=4;overflow=hidden;rotatable=0;points=[[0,0.5],[1,0.5]];portConstraint=eastwest;whiteSpace=wrap;html=1;" parent="9S2_7b4mvDIKhxkQ7Gb--73" vertex="1">
          <mxGeometry y="42" width="140" height="26" as="geometry" />
        </mxCell>
        <mxCell id="9S2_7b4mvDIKhxkQ7Gb--77" style="edgeStyle=orthogonalEdgeStyle;rounded=0;orthogonalLoop=1;jettySize=auto;html=1;entryX=0.5;entryY=0;entryDx=0;entryDy=0;" parent="1" source="9S2_7b4mvDIKhxkQ7Gb--54" target="9S2_7b4mvDIKhxkQ7Gb--73" edge="1">
          <mxGeometry relative="1" as="geometry" />
        </mxCell>
        <mxCell id="TbEDR5lOKSL9BZgDEyWb-24" value="IMAGES WITH S3 AWS" style="swimlane;html=1;startSize=20;horizontal=1;containerType=tree;glass=0;" vertex="1" parent="1">
          <mxGeometry x="80" y="100" width="550" height="290" as="geometry" />
        </mxCell>
        <mxCell id="TbEDR5lOKSL9BZgDEyWb-25" value="default values (no image)" style="rounded=0;whiteSpace=wrap;html=1;verticalAlign=top;" vertex="1" parent="TbEDR5lOKSL9BZgDEyWb-24">
          <mxGeometry x="344" y="90" width="166" height="30" as="geometry" />
        </mxCell>
        <mxCell id="TbEDR5lOKSL9BZgDEyWb-26" value="NEW USER" style="rounded=0;whiteSpace=wrap;html=1;verticalAlign=top;" vertex="1" parent="TbEDR5lOKSL9BZgDEyWb-24">
          <mxGeometry x="40" y="90" width="80" height="30" as="geometry" />
        </mxCell>
        <mxCell id="TbEDR5lOKSL9BZgDEyWb-27" value="FORM" style="whiteSpace=wrap;html=1;aspect=fixed;" vertex="1" parent="TbEDR5lOKSL9BZgDEyWb-24">
          <mxGeometry x="150" y="75" width="60" height="60" as="geometry" />
        </mxCell>
        <mxCell id="TbEDR5lOKSL9BZgDEyWb-28" value="CREATE USER" style="shape=hexagon;perimeter=hexagonPerimeter2;whiteSpace=wrap;html=1;fixedSize=1;" vertex="1" parent="TbEDR5lOKSL9BZgDEyWb-24">
          <mxGeometry x="240" y="75" width="80" height="60" as="geometry" />
        </mxCell>
        <mxCell id="TbEDR5lOKSL9BZgDEyWb-29" value="EDIT PROFILE" style="rounded=0;whiteSpace=wrap;html=1;" vertex="1" parent="TbEDR5lOKSL9BZgDEyWb-24">
          <mxGeometry x="40" y="170" width="80" height="40" as="geometry" />
        </mxCell>
        <mxCell id="TbEDR5lOKSL9BZgDEyWb-30" value="FORM" style="whiteSpace=wrap;html=1;aspect=fixed;" vertex="1" parent="TbEDR5lOKSL9BZgDEyWb-24">
          <mxGeometry x="150" y="160" width="60" height="60" as="geometry" />
        </mxCell>
        <mxCell id="TbEDR5lOKSL9BZgDEyWb-31" style="edgeStyle=orthogonalEdgeStyle;rounded=0;orthogonalLoop=1;jettySize=auto;html=1;entryX=0;entryY=0.5;entryDx=0;entryDy=0;" edge="1" parent="TbEDR5lOKSL9BZgDEyWb-24" source="TbEDR5lOKSL9BZgDEyWb-35" target="TbEDR5lOKSL9BZgDEyWb-36">
          <mxGeometry relative="1" as="geometry">
            <Array as="points">
              <mxPoint x="330" y="190" />
              <mxPoint x="330" y="235" />
            </Array>
          </mxGeometry>
        </mxCell>
        <mxCell id="TbEDR5lOKSL9BZgDEyWb-32" value="iF IMAGE" style="edgeLabel;html=1;align=center;verticalAlign=middle;resizable=0;points=[];" vertex="1" connectable="0" parent="TbEDR5lOKSL9BZgDEyWb-31">
          <mxGeometry x="-0.2754" y="-4" relative="1" as="geometry">
            <mxPoint x="39" y="-4" as="offset" />
          </mxGeometry>
        </mxCell>
        <mxCell id="TbEDR5lOKSL9BZgDEyWb-33" style="edgeStyle=orthogonalEdgeStyle;rounded=0;orthogonalLoop=1;jettySize=auto;html=1;exitX=1;exitY=0.5;exitDx=0;exitDy=0;entryX=0;entryY=0.5;entryDx=0;entryDy=0;" edge="1" parent="TbEDR5lOKSL9BZgDEyWb-24" source="TbEDR5lOKSL9BZgDEyWb-35" target="TbEDR5lOKSL9BZgDEyWb-37">
          <mxGeometry relative="1" as="geometry">
            <mxPoint x="350" y="190" as="targetPoint" />
            <Array as="points">
              <mxPoint x="330" y="190" />
              <mxPoint x="330" y="165" />
            </Array>
          </mxGeometry>
        </mxCell>
        <mxCell id="TbEDR5lOKSL9BZgDEyWb-34" value="IF IMAGE&lt;div&gt;BEFORE&lt;/div&gt;" style="edgeLabel;html=1;align=center;verticalAlign=middle;resizable=0;points=[];" vertex="1" connectable="0" parent="TbEDR5lOKSL9BZgDEyWb-33">
          <mxGeometry x="0.0578" y="-4" relative="1" as="geometry">
            <mxPoint as="offset" />
          </mxGeometry>
        </mxCell>
        <mxCell id="TbEDR5lOKSL9BZgDEyWb-35" value="EDIT&amp;nbsp;&lt;div&gt;USER&lt;/div&gt;" style="shape=hexagon;perimeter=hexagonPerimeter2;whiteSpace=wrap;html=1;fixedSize=1;" vertex="1" parent="TbEDR5lOKSL9BZgDEyWb-24">
          <mxGeometry x="240" y="160" width="80" height="60" as="geometry" />
        </mxCell>
        <mxCell id="TbEDR5lOKSL9BZgDEyWb-36" value="S3 BUCKET" style="rounded=0;whiteSpace=wrap;html=1;" vertex="1" parent="TbEDR5lOKSL9BZgDEyWb-24">
          <mxGeometry x="430" y="220" width="80" height="30" as="geometry" />
        </mxCell>
        <mxCell id="TbEDR5lOKSL9BZgDEyWb-37" value="S3 BUCKET DELETE" style="rounded=0;whiteSpace=wrap;html=1;" vertex="1" parent="TbEDR5lOKSL9BZgDEyWb-24">
          <mxGeometry x="430" y="150" width="70" height="30" as="geometry" />
        </mxCell>
        <mxCell id="TbEDR5lOKSL9BZgDEyWb-38" style="edgeStyle=orthogonalEdgeStyle;rounded=0;orthogonalLoop=1;jettySize=auto;html=1;exitX=1;exitY=0.5;exitDx=0;exitDy=0;" edge="1" parent="TbEDR5lOKSL9BZgDEyWb-24" source="TbEDR5lOKSL9BZgDEyWb-25" target="TbEDR5lOKSL9BZgDEyWb-25">
          <mxGeometry relative="1" as="geometry" />
        </mxCell>
      </root>
    </mxGraphModel>
  </diagram>
</mxfile>
